<svg width="1201" height="671" viewBox="0 0 1201 671" fill="none" xmlns="http://www.w3.org/2000/svg">
<rect width="1203" height="671" transform="translate(-0.523438)" fill="white"/>
<circle cx="595.426" cy="339.172" r="267.778" fill="#E2F5FA" stroke="#F8FBFB" stroke-width="11.2405"/>
<circle opacity="0.74" cx="594.934" cy="339.662" r="190.297" fill="#AFE3F1"/>
<path d="M321.672 109.87H510.565C528.624 109.87 543.265 124.51 543.265 142.569V256.326H386.236C368.176 256.326 353.536 241.686 353.536 223.627L353.536 177.705L353.536 177.476L353.439 177.269L321.672 109.87Z" fill="#E2F5FA" stroke="#0055DC" stroke-width="2.04373"/>
<rect x="373.659" y="129.5" width="140.633" height="14.7517" fill="#99DBED"/>
<rect x="373.659" y="150.152" width="89.4937" height="6.88413" fill="#99DBED"/>
<path d="M395.786 174.738H506.916" stroke="#6ECCE5" stroke-width="2.04373"/>
<path d="M395.786 217.027H506.916" stroke="#6ECCE5" stroke-width="2.04373"/>
<path d="M395.786 187.523H459.71" stroke="#6ECCE5" stroke-width="2.04373"/>
<path d="M395.786 229.812H459.71" stroke="#6ECCE5" stroke-width="2.04373"/>
<path d="M445.561 183.628H634.48C652.539 183.628 667.18 198.268 667.18 216.328V465.801H510.151C492.092 465.801 477.451 451.161 477.451 433.101L477.451 254.144L477.451 253.923L477.36 253.722L445.561 183.628Z" fill="#E2F5FA" stroke="#0055DC" stroke-width="2.04373"/>
<path d="M528.552 256.364H639.681" stroke="#6ECCE5" stroke-width="2.04373"/>
<path d="M528.552 298.652H639.681" stroke="#6ECCE5" stroke-width="2.04373"/>
<path d="M528.552 269.149H592.476" stroke="#6ECCE5" stroke-width="2.04373"/>
<path d="M528.552 311.438H592.476" stroke="#6ECCE5" stroke-width="2.04373"/>
<path d="M528.552 214.076H639.681" stroke="#6ECCE5" stroke-width="2.04373"/>
<path d="M528.552 226.861H592.476" stroke="#6ECCE5" stroke-width="2.04373"/>
<path d="M528.552 383.229H639.681" stroke="#6ECCE5" stroke-width="2.04373"/>
<path d="M528.552 425.517H639.681" stroke="#6ECCE5" stroke-width="2.04373"/>
<path d="M528.552 396.014H592.476" stroke="#6ECCE5" stroke-width="2.04373"/>
<path d="M528.552 438.302H592.476" stroke="#6ECCE5" stroke-width="2.04373"/>
<path d="M528.552 340.94H639.681" stroke="#6ECCE5" stroke-width="2.04373"/>
<path d="M528.552 353.726H592.476" stroke="#6ECCE5" stroke-width="2.04373"/>
<path d="M393.149 256.327C406.2 251.577 415.494 239.062 415.494 224.403V214.568C415.494 197.481 429.346 183.628 446.434 183.628C463.522 183.628 477.374 197.481 477.374 214.568V256.327H393.149Z" fill="#AFE3F1" stroke="#0055DC" stroke-width="2.04373"/>
<path d="M291.579 140.81C291.579 123.722 305.432 109.87 322.52 109.87C339.607 109.87 353.46 123.722 353.46 140.81V176.667H291.579V140.81Z" fill="#AFE3F1" stroke="#0055DC" stroke-width="2.04373"/>
<path d="M353.498 188.507L353.498 225.387C353.498 242.496 367.368 256.365 384.477 256.365V256.365C401.585 256.365 415.455 242.496 415.455 225.387L415.455 222.436" stroke="#0055DC" stroke-width="2.04373"/>
<rect x="375.173" y="174.778" width="7.79074" height="7.79074" fill="#E2F5FA" stroke="#0055DC" stroke-width="2.04373"/>
<rect x="375.173" y="218.049" width="7.79074" height="7.79074" fill="#E2F5FA" stroke="#3790E0" stroke-width="2.04373"/>
<rect x="504.004" y="215.098" width="7.79074" height="7.79074" fill="#E2F5FA" stroke="#003682" stroke-width="2.04373"/>
<rect x="504.004" y="256.403" width="7.79074" height="7.79074" fill="#E2F5FA" stroke="#0055DC" stroke-width="2.04373"/>
<rect x="504.004" y="299.674" width="7.79074" height="7.79074" fill="#E2F5FA" stroke="#3790E0" stroke-width="2.04373"/>
<rect x="504.004" y="339.012" width="7.79074" height="7.79074" fill="#E2F5FA" stroke="#6ECCE5" stroke-width="2.04373"/>
<rect x="504.004" y="380.317" width="7.79074" height="7.79074" fill="#E2F5FA" stroke="#6ECCE5" stroke-width="2.04373"/>
<rect x="504.004" y="423.589" width="7.79074" height="7.79074" fill="#E2F5FA" stroke="#6ECCE5" stroke-width="2.04373"/>
<path d="M774.413 230.492H415.812V466.946H774.413V230.492Z" fill="white"/>
<path d="M414.47 229.812V467.806H775.395V229.812H414.47ZM416.63 465.961V252.945H773.234V465.963L416.63 465.961Z" fill="#0055DC"/>
<path d="M506.046 271.666H437.946V443.98H506.046V271.666Z" fill="#F8FBFB"/>
<path d="M752.134 271.666H487.473V443.98H752.134V271.666Z" fill="#F8FBFB"/>
<path d="M505.172 308.063V296.191H653.087V308.063H505.172Z" fill="#C5EBF5" stroke="white" stroke-width="2.04373"/>
<path d="M505.172 335.896V324.024H566.155V335.896H505.172Z" fill="#C5EBF5" stroke="white" stroke-width="2.04373"/>
<path d="M505.172 363.727V351.855H542.248V363.727H505.172Z" fill="#C5EBF5" stroke="white" stroke-width="2.04373"/>
<path d="M616.011 335.896V324.024H722.633V335.896H616.011Z" fill="#C5EBF5" stroke="white" stroke-width="2.04373"/>
<path d="M613.838 308.066V296.194H720.46V308.066H613.838Z" fill="#C5EBF5" stroke="white" stroke-width="2.04373"/>
<path d="M629.051 363.727V351.855H670.474V363.727H629.051Z" fill="#C5EBF5" stroke="white" stroke-width="2.04373"/>
<path d="M679.037 363.727V351.855H700.9V363.727H679.037Z" fill="#C5EBF5" stroke="white" stroke-width="2.04373"/>
<path d="M505.172 391.559V379.687H550.941V391.559H505.172Z" fill="#C5EBF5" stroke="white" stroke-width="2.04373"/>
<path d="M616.011 391.559V379.687H709.593V391.559H616.011Z" fill="#C5EBF5" stroke="white" stroke-width="2.04373"/>
<path d="M505.682 419.615V408.44H545.394V419.615H505.682Z" fill="#C5EBF5" stroke="white" stroke-width="2.04373"/>
<path d="M505.172 419.389V407.517H596.581V419.389H505.172Z" fill="#C5EBF5" stroke="white" stroke-width="2.04373"/>
<path d="M605.401 418.692V407.517H685.733V418.692H605.401Z" fill="#C5EBF5" stroke="white" stroke-width="2.04373"/>
<path d="M491.808 293.788H468.351V307.436H491.808V293.788Z" fill="#C5EBF5"/>
<path d="M491.808 293.788H468.351V307.436H491.808V293.788Z" stroke="white"/>
<path d="M491.808 322.791H468.351V336.439H491.808V322.791Z" fill="#C5EBF5"/>
<path d="M491.808 322.791H468.351V336.439H491.808V322.791Z" stroke="white"/>
<path d="M492.59 350.94H468.351V364.589H492.59V350.94Z" fill="#C5EBF5"/>
<path d="M492.59 350.94H468.351V364.589H492.59V350.94Z" stroke="white"/>
<path d="M492.59 379.943H468.351V393.592H492.59V379.943Z" fill="#C5EBF5"/>
<path d="M492.59 379.943H468.351V393.592H492.59V379.943Z" stroke="white"/>
<path d="M492.59 408.094H468.351V421.742H492.59V408.094Z" fill="#C5EBF5"/>
<path d="M492.59 408.094H468.351V421.742H492.59V408.094Z" stroke="white"/>
<rect x="416.347" y="230.833" width="357.933" height="235.097" stroke="#0055DC" stroke-width="2.04373"/>
<path d="M428.119 246.019C430.474 246.019 432.384 244.109 432.384 241.753C432.384 239.398 430.474 237.488 428.119 237.488C425.763 237.488 423.854 239.398 423.854 241.753C423.854 244.109 425.763 246.019 428.119 246.019Z" fill="#F8FBFB"/>
<path d="M441.768 246.019C444.124 246.019 446.033 244.109 446.033 241.753C446.033 239.398 444.124 237.488 441.768 237.488C439.412 237.488 437.503 239.398 437.503 241.753C437.503 244.109 439.412 246.019 441.768 246.019Z" fill="#F8FBFB"/>
<path d="M455.414 246.019C457.769 246.019 459.679 244.109 459.679 241.753C459.679 239.398 457.769 237.488 455.414 237.488C453.058 237.488 451.148 239.398 451.148 241.753C451.148 244.109 453.058 246.019 455.414 246.019Z" fill="#F8FBFB"/>
<ellipse cx="595.425" cy="359.626" rx="104.245" ry="106.212" fill="white"/>
<path d="M689.287 359.134C689.287 411.809 647.242 454.471 595.426 454.471C543.609 454.471 501.564 411.809 501.564 359.134C501.564 306.459 543.609 263.797 595.426 263.797C647.242 263.797 689.287 306.459 689.287 359.134Z" fill="white" stroke="url(#paint0_linear_22299_4605)" stroke-width="3.06559"/>
<path d="M559.231 466.571H637.942L632.706 454.199L632.702 454.19L632.698 454.181L619.737 421.882L577.437 421.882L564.475 454.181L564.472 454.19L564.468 454.199L559.231 466.571Z" fill="#C5EBF5" stroke="#0055DC" stroke-width="2.04373"/>
<path d="M560.457 386.939L560.457 386.935C560.576 383.37 562.036 374.665 564.195 363.499C566.346 352.375 569.168 338.911 571.977 325.9C574.785 312.89 577.578 300.336 579.668 291.035C580.714 286.385 581.584 282.548 582.192 279.874C582.497 278.536 582.736 277.49 582.898 276.778L582.965 276.484L585.591 276.499L611.475 276.647L614.1 276.662L614.164 276.956C614.32 277.67 614.55 278.719 614.843 280.06C615.427 282.741 616.263 286.588 617.268 291.25C619.278 300.574 621.961 313.159 624.658 326.201C627.355 339.244 630.064 352.74 632.126 363.888C634.195 375.077 635.592 383.8 635.697 387.369L560.457 386.939ZM560.457 386.939C560.343 389.974 561.263 393.54 562.778 397.244C564.286 400.932 566.351 404.675 568.444 408.037C570.536 411.396 572.644 414.356 574.231 416.477C575.023 417.537 575.685 418.386 576.147 418.969C576.315 419.18 576.456 419.357 576.568 419.496L619.318 419.74M560.457 386.939L619.318 419.74M619.318 419.74C619.431 419.603 619.574 419.428 619.743 419.218C620.21 418.64 620.879 417.799 621.68 416.748C623.284 414.646 625.417 411.71 627.536 408.375C629.657 405.037 631.752 401.318 633.291 397.647C634.836 393.961 635.785 390.405 635.697 387.369L619.318 419.74Z" fill="url(#paint1_linear_22299_4605)" stroke="#0055DC" stroke-width="2.04373"/>
<path d="M596.28 403.233C596.152 408.056 596.786 412.389 598.73 414.998C599.432 415.929 600.298 416.615 601.382 417.115C602.141 417.429 602.956 417.557 603.716 417.562C621.965 417.295 595.878 408.611 614.087 391.769C620.41 385.992 637.62 374.401 619.353 352.774C612.164 344.26 597.876 345.539 595.618 353.01C592.314 364.061 596.468 370.826 597.745 377.266C600.511 391.321 596.29 400.821 596.28 403.233Z" fill="url(#paint2_linear_22299_4605)"/>
<path d="M611.354 329.686C611.679 329.317 611.949 328.948 612.221 328.454C619.387 315.137 618.873 296.023 603.684 282.392C602.611 281.272 598.412 280.383 596.199 281.607C596.091 281.668 596.037 281.73 595.929 281.729C576.554 290.277 593.81 312.145 602.796 327.782C604.882 331.443 608.865 332.393 611.354 329.748C611.3 329.748 611.354 329.686 611.354 329.686Z" fill="url(#paint3_linear_22299_4605)"/>
<path d="M571.853 370.375C571.606 370.683 571.359 370.991 571.111 371.36C564.981 381.963 565.415 395.943 578.415 404.304C579.335 404.99 582.9 405.196 584.81 404.093C584.872 404.032 584.995 403.971 585.057 403.971C601.569 395.531 586.872 381.346 579.229 370.85C577.456 368.428 574.014 368.161 571.977 370.314C571.915 370.314 571.854 370.313 571.853 370.375Z" fill="url(#paint4_linear_22299_4605)"/>
<path d="M582.031 320.832C576.625 322.28 575.028 329.399 574.973 329.527C574.314 338.064 576.604 339.446 587.081 348.905C594.26 355.384 596.326 363.04 601.094 365.853C607.264 369.554 617.128 368.524 612.91 359.785C611.301 356.123 595.275 348.927 593.973 345.242C592.518 341.011 600.779 338.797 597.168 327.535C596.201 324.384 590.534 318.539 582.031 320.832Z" fill="url(#paint5_linear_22299_4605)"/>
<path d="M575.264 366.627C577.088 366.809 580.319 364.197 580.427 364.084C583.067 361.583 582.278 357.748 578.69 355.784C577.619 355.263 575.475 354.622 574.721 355.132C572.085 356.718 573.361 359.527 572.225 361.75C572.009 362.149 571.187 366.261 575.264 366.627Z" fill="#FD8639"/>
<path d="M586.049 274.074L583.541 274.06L580.435 287.793L616.538 287.999L613.545 274.232L611.037 274.217L586.049 274.074Z" fill="#C5EBF5" stroke="#0055DC" stroke-width="2.04373"/>
<path d="M567.962 407.532L577.178 423.068L620.016 423.068L627.904 407.532L567.962 407.532Z" fill="#C5EBF5" stroke="#0055DC" stroke-width="2.04373"/>
<path d="M602.272 276.144L603.785 285.994L612.554 285.994L610.537 276.144L602.272 276.144Z" fill="white"/>
<path d="M592.594 276.003L591.137 285.853L582.311 285.853L584.329 276.003L592.594 276.003Z" fill="#6ECCE5"/>
<path d="M590.54 424.044L585.433 465.702L567.805 465.702L582.608 424.045L590.54 424.044Z" fill="#6ECCE5"/>
<path d="M606.798 424.043L611.905 464.718L629.677 464.718L614.73 424.044L606.798 424.043Z" fill="white"/>
<path d="M590.226 422.113L583.96 408.402L575.019 408.402L582.997 422.113L590.226 422.113Z" fill="#6ECCE5"/>
<path d="M606.911 422.114L613.177 408.403L622.117 408.403L614.14 422.114L606.911 422.114Z" fill="white"/>
<path d="M304.7 474.428H302.205V488.568H304.7V474.428Z" fill="#C3E9F3" stroke="#C3E9F3" stroke-width="1.28601"/>
<path d="M324.661 494.39H309.689V496.885H324.661V494.39Z" fill="#C3E9F3" stroke="#C3E9F3" stroke-width="1.28601"/>
<path d="M296.382 494.39H281.41V496.885H296.382V494.39Z" fill="#C3E9F3" stroke="#C3E9F3" stroke-width="1.28601"/>
<path d="M304.7 502.708H302.205V517.68H304.7V502.708Z" fill="#C3E9F3" stroke="#C3E9F3" stroke-width="1.28601"/>
<path d="M317.377 479.645L306.922 490.1L308.824 492.001L319.279 481.546L317.377 479.645Z" fill="#C3E9F3" stroke="#C3E9F3" stroke-width="1.28601"/>
<path d="M308.839 499.604L306.938 501.506L317.392 511.961L319.294 510.059L308.839 499.604Z" fill="#C3E9F3" stroke="#C3E9F3" stroke-width="1.28601"/>
<path d="M288.83 479.628L286.928 481.53L297.383 491.985L299.284 490.083L288.83 479.628Z" fill="#C3E9F3" stroke="#C3E9F3" stroke-width="1.28601"/>
<path d="M297.41 499.6L286.955 510.055L288.857 511.956L299.312 501.502L297.41 499.6Z" fill="#C3E9F3" stroke="#C3E9F3" stroke-width="1.28601"/>
<rect x="194.867" y="511.383" width="13.3202" height="13.3202" transform="rotate(-45 194.867 511.383)" fill="#FBAD41"/>
<rect x="268.844" y="198.5" width="8.39898" height="8.39898" transform="rotate(-45 268.844 198.5)" fill="#FBAD41"/>
<path d="M849.145 80.0664H843.562V92.6288H849.145V80.0664Z" fill="#FBAD41" stroke="#FBAD41" stroke-width="1.35769"/>
<path d="M864.499 95.4199H851.937V101.003H864.499V95.4199Z" fill="#FBAD41" stroke="#FBAD41" stroke-width="1.35769"/>
<path d="M849.145 103.796H843.562V116.358H849.145V103.796Z" fill="#FBAD41" stroke="#FBAD41" stroke-width="1.35769"/>
<path d="M840.77 95.4199H828.208V101.003H840.77V95.4199Z" fill="#FBAD41" stroke="#FBAD41" stroke-width="1.35769"/>
<rect x="921.634" y="67.3574" width="12.6255" height="12.6255" transform="rotate(-45 921.634 67.3574)" fill="#F48120"/>
<path d="M990.84 468.789H986.51V478.533H990.84V468.789Z" fill="#C5EBF5"/>
<path d="M1002.75 480.698H993.005V485.029H1002.75V480.698Z" fill="#C5EBF5"/>
<path d="M990.84 487.193H986.51V496.937H990.84V487.193Z" fill="#C5EBF5"/>
<path d="M984.344 480.698H974.6V485.029H984.344V480.698Z" fill="#C5EBF5"/>
<path d="M713.337 393.102H902.267C920.327 393.102 934.967 407.742 934.967 425.802V564.145H777.938C759.879 564.145 745.238 549.505 745.238 531.445L745.238 464.855L745.238 464.638L745.15 464.439L713.337 393.102Z" fill="#E2F5FA" stroke="#0055DC" stroke-width="2.04373"/>
<path d="M797.322 456.004H908.452" stroke="#6ECCE5" stroke-width="2.04373"/>
<path d="M797.322 498.292H908.452" stroke="#6ECCE5" stroke-width="2.04373"/>
<path d="M797.322 468.789H861.246" stroke="#6ECCE5" stroke-width="2.04373"/>
<path d="M797.322 511.077H861.246" stroke="#6ECCE5" stroke-width="2.04373"/>
<path d="M797.322 413.716H908.452" stroke="#6ECCE5" stroke-width="2.04373"/>
<path d="M797.322 426.501H861.246" stroke="#6ECCE5" stroke-width="2.04373"/>
<path d="M683.281 424.042C683.281 406.954 697.134 393.102 714.221 393.102C731.309 393.102 745.162 406.954 745.162 424.042V465.8H661.756C674.339 461.137 683.281 449.028 683.281 434.856V424.042Z" fill="#AFE3F1" stroke="#0055DC" stroke-width="2.04373"/>
<path d="M807.196 531.714C807.195 546.638 797.712 559.348 784.441 564.145L962.257 564.145C980.317 564.145 994.957 549.505 994.957 531.445L994.957 511.116L807.196 511.116L807.196 531.714Z" fill="#AFE3F1" stroke="#0055DC" stroke-width="2.04373"/>
<path d="M903.888 493.926L909.189 488.625L912.37 485.444L916.611 489.685L903.888 502.408L903.888 493.926Z" fill="#0055DC"/>
<mask id="path-105-inside-1_22299_4605" fill="white">
<path fill-rule="evenodd" clip-rule="evenodd" d="M1017.86 384.196C1014.93 381.268 1010.18 381.268 1007.26 384.196L910.776 480.676C909.043 482.409 908.336 484.78 908.655 487.034L905.473 490.216L911.835 496.577L915.013 493.398C917.269 493.72 919.643 493.013 921.379 491.278L1017.86 394.798C1020.79 391.87 1020.79 387.123 1017.86 384.196Z"/>
</mask>
<path fill-rule="evenodd" clip-rule="evenodd" d="M1017.86 384.196C1014.93 381.268 1010.18 381.268 1007.26 384.196L910.776 480.676C909.043 482.409 908.336 484.78 908.655 487.034L905.473 490.216L911.835 496.577L915.013 493.398C917.269 493.72 919.643 493.013 921.379 491.278L1017.86 394.798C1020.79 391.87 1020.79 387.123 1017.86 384.196Z" fill="#6ECCE5"/>
<path d="M908.655 487.034L910.1 488.479L910.822 487.758L910.679 486.747L908.655 487.034ZM905.473 490.216L904.028 488.77L902.583 490.216L904.028 491.661L905.473 490.216ZM911.835 496.577L910.39 498.022L911.835 499.467L913.28 498.022L911.835 496.577ZM915.013 493.398L915.302 491.375L914.291 491.231L913.568 491.953L915.013 493.398ZM921.379 491.278L922.824 492.723L921.379 491.278ZM1017.86 394.798L1016.41 393.353L1017.86 394.798ZM1008.7 385.641C1010.83 383.511 1014.28 383.511 1016.41 385.641L1019.3 382.751C1015.58 379.025 1009.54 379.025 1005.81 382.75L1008.7 385.641ZM912.222 482.121L1008.7 385.641L1005.81 382.75L909.331 479.231L912.222 482.121ZM910.679 486.747C910.446 485.102 910.962 483.381 912.222 482.121L909.331 479.231C907.124 481.438 906.226 484.458 906.632 487.321L910.679 486.747ZM906.919 491.661L910.1 488.479L907.21 485.589L904.028 488.77L906.919 491.661ZM913.28 495.132L906.919 488.77L904.028 491.661L910.39 498.022L913.28 495.132ZM913.568 491.953L910.39 495.132L913.28 498.022L916.459 494.843L913.568 491.953ZM919.933 489.833C918.672 491.094 916.948 491.61 915.302 491.375L914.725 495.422C917.59 495.83 920.615 494.932 922.824 492.723L919.933 489.833ZM1016.41 393.353L919.933 489.833L922.824 492.723L1019.3 396.243L1016.41 393.353ZM1016.41 385.641C1018.54 387.77 1018.54 391.223 1016.41 393.353L1019.3 396.243C1023.03 392.517 1023.03 386.476 1019.3 382.751L1016.41 385.641Z" fill="#0055DC" mask="url(#path-105-inside-1_22299_4605)"/>
<path d="M1016.27 373.591C1019.63 370.224 1025.09 370.224 1028.46 373.591C1031.83 376.959 1031.83 382.418 1028.46 385.785L976.246 438L964.052 425.806L1016.27 373.591Z" fill="#0055DC"/>
<rect x="1024.22" y="392.675" width="4.49814" height="62.9739" rx="2.24907" transform="rotate(45 1024.22 392.675)" fill="#0055DC"/>
<rect x="1027.4" y="395.855" width="4.49814" height="13.4944" rx="2.24907" transform="rotate(135 1027.4 395.855)" fill="#0055DC"/>
<rect x="770.81" y="414.738" width="7.79074" height="7.79074" fill="#E2F5FA" stroke="#003682" stroke-width="2.04373"/>
<rect x="770.81" y="456.042" width="7.79074" height="7.79074" fill="#E2F5FA" stroke="#0055DC" stroke-width="2.04373"/>
<rect x="770.81" y="499.314" width="7.79074" height="7.79074" fill="#E2F5FA" stroke="#3790E0" stroke-width="2.04373"/>
<path d="M745.203 496.325L745.203 533.204C745.203 550.313 759.073 564.183 776.182 564.183V564.183C793.291 564.183 807.16 550.313 807.16 533.204L807.16 530.254" stroke="#0055DC" stroke-width="2.04373"/>
<defs>
<linearGradient id="paint0_linear_22299_4605" x1="540.682" y1="262.265" x2="638.113" y2="455.249" gradientUnits="userSpaceOnUse">
<stop offset="0.410036" stop-color="#FBAD41"/>
<stop offset="1" stop-color="#FF6633"/>
</linearGradient>
<linearGradient id="paint1_linear_22299_4605" x1="598.537" y1="275.552" x2="597.708" y2="420.638" gradientUnits="userSpaceOnUse">
<stop stop-color="#E2F5FA"/>
<stop offset="1" stop-color="white"/>
</linearGradient>
<linearGradient id="paint2_linear_22299_4605" x1="606.665" y1="378.946" x2="599.463" y2="401.837" gradientUnits="userSpaceOnUse">
<stop stop-color="#FBAD41"/>
<stop offset="1" stop-color="#F9C885"/>
</linearGradient>
<linearGradient id="paint3_linear_22299_4605" x1="603.605" y1="310.745" x2="615.834" y2="333.246" gradientUnits="userSpaceOnUse">
<stop stop-color="#FF6633"/>
<stop offset="1" stop-color="#F6821F"/>
</linearGradient>
<linearGradient id="paint4_linear_22299_4605" x1="579.702" y1="379.653" x2="584.963" y2="395.067" gradientUnits="userSpaceOnUse">
<stop stop-color="#FBAD41"/>
<stop offset="1" stop-color="#FFC553"/>
</linearGradient>
<linearGradient id="paint5_linear_22299_4605" x1="600.118" y1="339.132" x2="579.209" y2="326.07" gradientUnits="userSpaceOnUse">
<stop stop-color="#FD8639"/>
<stop offset="1" stop-color="#FF6633"/>
</linearGradient>
</defs>
</svg>
